<svg width="79" height="79" viewBox="0 0 79 79" fill="none" xmlns="http://www.w3.org/2000/svg">
<circle cx="39.5" cy="39.5" r="39.5" fill="#14FFEC"/>
<path d="M55.2806 44.6161C52.7655 44.6161 50.3321 44.2071 48.0624 43.471C47.3467 43.2256 46.5492 43.4096 45.9971 43.9617L42.7867 47.99C36.9999 45.2295 31.5811 40.0152 28.6979 34.0239L32.6853 30.6295C33.2374 30.0569 33.401 29.2594 33.1761 28.5437C32.4195 26.274 32.031 23.8407 32.031 21.3255C32.031 20.2213 31.1108 19.3011 30.0066 19.3011H22.9315C21.8273 19.3011 20.4982 19.7919 20.4982 21.3255C20.4982 40.3219 36.3047 56.108 55.2806 56.108C56.7324 56.108 57.305 54.8197 57.305 53.6951V46.6404C57.305 45.5362 56.3848 44.6161 55.2806 44.6161Z" fill="#212121"/>
</svg>
